<mxfile host="app.diagrams.net" modified="2022-09-05T19:30:23.633Z" agent="5.0 (Windows NT 10.0; Win64; x64) AppleWebKit/537.36 (KHTML, like Gecko) Chrome/105.0.0.0 Safari/537.36" etag="QapUai78dFoXzVni7N1b" version="20.2.8" type="github">
  <diagram id="e61ChwSNdLdz5od8M-kF" name="PÃ¡gina-1">
    <mxGraphModel dx="1108" dy="450" grid="1" gridSize="10" guides="1" tooltips="1" connect="1" arrows="1" fold="1" page="1" pageScale="1" pageWidth="850" pageHeight="1100" math="0" shadow="0">
      <root>
        <mxCell id="0" />
        <mxCell id="1" parent="0" />
        <mxCell id="DxnIvV2hg2z9Hd538eVF-3" value="" style="edgeStyle=orthogonalEdgeStyle;rounded=0;orthogonalLoop=1;jettySize=auto;html=1;" parent="1" source="DxnIvV2hg2z9Hd538eVF-1" target="DxnIvV2hg2z9Hd538eVF-2" edge="1">
          <mxGeometry relative="1" as="geometry" />
        </mxCell>
        <mxCell id="DxnIvV2hg2z9Hd538eVF-1" value="inicio" style="ellipse;whiteSpace=wrap;html=1;" parent="1" vertex="1">
          <mxGeometry x="40" y="40" width="120" height="80" as="geometry" />
        </mxCell>
        <mxCell id="WnruKDRqM4DlYAUphrk8-2" value="" style="edgeStyle=orthogonalEdgeStyle;rounded=0;orthogonalLoop=1;jettySize=auto;html=1;" edge="1" parent="1" source="DxnIvV2hg2z9Hd538eVF-2" target="WnruKDRqM4DlYAUphrk8-1">
          <mxGeometry relative="1" as="geometry" />
        </mxCell>
        <mxCell id="DxnIvV2hg2z9Hd538eVF-2" value="numi(float)&lt;br&gt;nums(float)&lt;br&gt;vidas(int)&lt;br&gt;reps(char)" style="rounded=0;whiteSpace=wrap;html=1;" parent="1" vertex="1">
          <mxGeometry x="40" y="140" width="120" height="60" as="geometry" />
        </mxCell>
        <mxCell id="DxnIvV2hg2z9Hd538eVF-9" value="" style="edgeStyle=orthogonalEdgeStyle;rounded=0;orthogonalLoop=1;jettySize=auto;html=1;" parent="1" source="DxnIvV2hg2z9Hd538eVF-6" target="DxnIvV2hg2z9Hd538eVF-8" edge="1">
          <mxGeometry relative="1" as="geometry" />
        </mxCell>
        <mxCell id="DxnIvV2hg2z9Hd538eVF-6" value="Pantalla de incio" style="shape=document;whiteSpace=wrap;html=1;boundedLbl=1;" parent="1" vertex="1">
          <mxGeometry x="40" y="380" width="120" height="80" as="geometry" />
        </mxCell>
        <mxCell id="DxnIvV2hg2z9Hd538eVF-11" value="" style="edgeStyle=orthogonalEdgeStyle;rounded=0;orthogonalLoop=1;jettySize=auto;html=1;" parent="1" source="DxnIvV2hg2z9Hd538eVF-8" target="DxnIvV2hg2z9Hd538eVF-10" edge="1">
          <mxGeometry relative="1" as="geometry" />
        </mxCell>
        <mxCell id="DxnIvV2hg2z9Hd538eVF-8" value="&quot;ingresa un numero del 1 al 100&quot;" style="shape=document;whiteSpace=wrap;html=1;boundedLbl=1;" parent="1" vertex="1">
          <mxGeometry x="40" y="480" width="120" height="80" as="geometry" />
        </mxCell>
        <mxCell id="DxnIvV2hg2z9Hd538eVF-13" value="" style="edgeStyle=orthogonalEdgeStyle;rounded=0;orthogonalLoop=1;jettySize=auto;html=1;" parent="1" source="DxnIvV2hg2z9Hd538eVF-10" target="DxnIvV2hg2z9Hd538eVF-12" edge="1">
          <mxGeometry relative="1" as="geometry" />
        </mxCell>
        <mxCell id="DxnIvV2hg2z9Hd538eVF-10" value="numi" style="shape=parallelogram;perimeter=parallelogramPerimeter;whiteSpace=wrap;html=1;fixedSize=1;" parent="1" vertex="1">
          <mxGeometry x="40" y="580" width="120" height="60" as="geometry" />
        </mxCell>
        <mxCell id="DxnIvV2hg2z9Hd538eVF-12" value="1" style="ellipse;whiteSpace=wrap;html=1;aspect=fixed;" parent="1" vertex="1">
          <mxGeometry x="60" y="670" width="80" height="80" as="geometry" />
        </mxCell>
        <mxCell id="WnruKDRqM4DlYAUphrk8-8" value="" style="edgeStyle=orthogonalEdgeStyle;rounded=0;orthogonalLoop=1;jettySize=auto;html=1;" edge="1" parent="1" source="DxnIvV2hg2z9Hd538eVF-14" target="WnruKDRqM4DlYAUphrk8-7">
          <mxGeometry relative="1" as="geometry" />
        </mxCell>
        <mxCell id="DxnIvV2hg2z9Hd538eVF-14" value="1" style="ellipse;whiteSpace=wrap;html=1;aspect=fixed;" parent="1" vertex="1">
          <mxGeometry x="420" y="40" width="80" height="80" as="geometry" />
        </mxCell>
        <mxCell id="WnruKDRqM4DlYAUphrk8-4" value="" style="edgeStyle=orthogonalEdgeStyle;rounded=0;orthogonalLoop=1;jettySize=auto;html=1;" edge="1" parent="1" source="WnruKDRqM4DlYAUphrk8-1" target="WnruKDRqM4DlYAUphrk8-3">
          <mxGeometry relative="1" as="geometry" />
        </mxCell>
        <mxCell id="WnruKDRqM4DlYAUphrk8-1" value="nums=42" style="rounded=0;whiteSpace=wrap;html=1;" vertex="1" parent="1">
          <mxGeometry x="40" y="220" width="120" height="60" as="geometry" />
        </mxCell>
        <mxCell id="WnruKDRqM4DlYAUphrk8-6" value="" style="edgeStyle=orthogonalEdgeStyle;rounded=0;orthogonalLoop=1;jettySize=auto;html=1;" edge="1" parent="1" source="WnruKDRqM4DlYAUphrk8-3" target="DxnIvV2hg2z9Hd538eVF-6">
          <mxGeometry relative="1" as="geometry" />
        </mxCell>
        <mxCell id="WnruKDRqM4DlYAUphrk8-3" value="vidas=5" style="rounded=0;whiteSpace=wrap;html=1;" vertex="1" parent="1">
          <mxGeometry x="40" y="300" width="120" height="60" as="geometry" />
        </mxCell>
        <mxCell id="WnruKDRqM4DlYAUphrk8-10" value="si" style="edgeStyle=orthogonalEdgeStyle;rounded=0;orthogonalLoop=1;jettySize=auto;html=1;entryX=0.5;entryY=0;entryDx=0;entryDy=0;" edge="1" parent="1" source="WnruKDRqM4DlYAUphrk8-7" target="WnruKDRqM4DlYAUphrk8-9">
          <mxGeometry relative="1" as="geometry" />
        </mxCell>
        <mxCell id="WnruKDRqM4DlYAUphrk8-12" value="no" style="edgeStyle=orthogonalEdgeStyle;rounded=0;orthogonalLoop=1;jettySize=auto;html=1;entryX=0.5;entryY=0;entryDx=0;entryDy=0;" edge="1" parent="1" source="WnruKDRqM4DlYAUphrk8-7" target="WnruKDRqM4DlYAUphrk8-11">
          <mxGeometry x="-0.7966" relative="1" as="geometry">
            <mxPoint as="offset" />
          </mxGeometry>
        </mxCell>
        <mxCell id="WnruKDRqM4DlYAUphrk8-7" value="mientras&lt;br&gt;reps&amp;lt;&amp;gt;&quot;n&quot;" style="rhombus;whiteSpace=wrap;html=1;" vertex="1" parent="1">
          <mxGeometry x="420" y="160" width="80" height="80" as="geometry" />
        </mxCell>
        <mxCell id="WnruKDRqM4DlYAUphrk8-14" value="no" style="edgeStyle=orthogonalEdgeStyle;rounded=0;orthogonalLoop=1;jettySize=auto;html=1;exitX=0;exitY=0.5;exitDx=0;exitDy=0;" edge="1" parent="1" source="WnruKDRqM4DlYAUphrk8-9" target="WnruKDRqM4DlYAUphrk8-13">
          <mxGeometry x="-0.7778" relative="1" as="geometry">
            <mxPoint x="555" y="320" as="sourcePoint" />
            <mxPoint as="offset" />
          </mxGeometry>
        </mxCell>
        <mxCell id="WnruKDRqM4DlYAUphrk8-16" value="si" style="edgeStyle=orthogonalEdgeStyle;rounded=0;orthogonalLoop=1;jettySize=auto;html=1;entryX=0.5;entryY=0;entryDx=0;entryDy=0;" edge="1" parent="1" source="WnruKDRqM4DlYAUphrk8-9" target="WnruKDRqM4DlYAUphrk8-15">
          <mxGeometry relative="1" as="geometry" />
        </mxCell>
        <mxCell id="WnruKDRqM4DlYAUphrk8-9" value="mientras&lt;br&gt;nums&amp;lt;&amp;gt;numi" style="rhombus;whiteSpace=wrap;html=1;" vertex="1" parent="1">
          <mxGeometry x="620" y="280" width="130" height="80" as="geometry" />
        </mxCell>
        <mxCell id="WnruKDRqM4DlYAUphrk8-11" value="fin" style="ellipse;whiteSpace=wrap;html=1;" vertex="1" parent="1">
          <mxGeometry x="240" y="670" width="120" height="80" as="geometry" />
        </mxCell>
        <mxCell id="WnruKDRqM4DlYAUphrk8-47" style="edgeStyle=orthogonalEdgeStyle;rounded=0;orthogonalLoop=1;jettySize=auto;html=1;entryX=0.5;entryY=0;entryDx=0;entryDy=0;" edge="1" parent="1" source="WnruKDRqM4DlYAUphrk8-13" target="WnruKDRqM4DlYAUphrk8-46">
          <mxGeometry relative="1" as="geometry" />
        </mxCell>
        <mxCell id="WnruKDRqM4DlYAUphrk8-13" value="Felicidades, adivinaste el numero secreto" style="shape=document;whiteSpace=wrap;html=1;boundedLbl=1;" vertex="1" parent="1">
          <mxGeometry x="420" y="810" width="120" height="80" as="geometry" />
        </mxCell>
        <mxCell id="WnruKDRqM4DlYAUphrk8-18" value="no" style="edgeStyle=orthogonalEdgeStyle;rounded=0;orthogonalLoop=1;jettySize=auto;html=1;entryX=0.5;entryY=0;entryDx=0;entryDy=0;" edge="1" parent="1" source="WnruKDRqM4DlYAUphrk8-15" target="WnruKDRqM4DlYAUphrk8-17">
          <mxGeometry x="-0.6429" relative="1" as="geometry">
            <mxPoint as="offset" />
          </mxGeometry>
        </mxCell>
        <mxCell id="WnruKDRqM4DlYAUphrk8-20" value="si" style="edgeStyle=orthogonalEdgeStyle;rounded=0;orthogonalLoop=1;jettySize=auto;html=1;entryX=0.5;entryY=0;entryDx=0;entryDy=0;" edge="1" parent="1" source="WnruKDRqM4DlYAUphrk8-15" target="WnruKDRqM4DlYAUphrk8-19">
          <mxGeometry relative="1" as="geometry" />
        </mxCell>
        <mxCell id="WnruKDRqM4DlYAUphrk8-15" value="para&lt;br&gt;vidas&amp;gt;0" style="rhombus;whiteSpace=wrap;html=1;" vertex="1" parent="1">
          <mxGeometry x="840" y="400" width="80" height="80" as="geometry" />
        </mxCell>
        <mxCell id="WnruKDRqM4DlYAUphrk8-48" style="edgeStyle=orthogonalEdgeStyle;rounded=0;orthogonalLoop=1;jettySize=auto;html=1;entryX=0.5;entryY=0;entryDx=0;entryDy=0;" edge="1" parent="1" source="WnruKDRqM4DlYAUphrk8-17" target="WnruKDRqM4DlYAUphrk8-46">
          <mxGeometry relative="1" as="geometry" />
        </mxCell>
        <mxCell id="WnruKDRqM4DlYAUphrk8-17" value="No pudiste adivinar el numero y te quedaste sin intentos, has perdido&quot;" style="shape=document;whiteSpace=wrap;html=1;boundedLbl=1;" vertex="1" parent="1">
          <mxGeometry x="590" y="810" width="120" height="80" as="geometry" />
        </mxCell>
        <mxCell id="WnruKDRqM4DlYAUphrk8-23" value="" style="edgeStyle=orthogonalEdgeStyle;rounded=0;orthogonalLoop=1;jettySize=auto;html=1;" edge="1" parent="1" source="WnruKDRqM4DlYAUphrk8-19" target="WnruKDRqM4DlYAUphrk8-22">
          <mxGeometry relative="1" as="geometry" />
        </mxCell>
        <mxCell id="WnruKDRqM4DlYAUphrk8-19" value="vidas=vidas-1" style="rounded=0;whiteSpace=wrap;html=1;" vertex="1" parent="1">
          <mxGeometry x="960" y="480" width="120" height="60" as="geometry" />
        </mxCell>
        <mxCell id="WnruKDRqM4DlYAUphrk8-26" value="no" style="edgeStyle=orthogonalEdgeStyle;rounded=0;orthogonalLoop=1;jettySize=auto;html=1;entryX=0.5;entryY=0;entryDx=0;entryDy=0;" edge="1" parent="1" source="WnruKDRqM4DlYAUphrk8-22" target="WnruKDRqM4DlYAUphrk8-25">
          <mxGeometry relative="1" as="geometry" />
        </mxCell>
        <mxCell id="WnruKDRqM4DlYAUphrk8-28" value="si" style="edgeStyle=orthogonalEdgeStyle;rounded=0;orthogonalLoop=1;jettySize=auto;html=1;entryX=0.5;entryY=0;entryDx=0;entryDy=0;" edge="1" parent="1" source="WnruKDRqM4DlYAUphrk8-22">
          <mxGeometry relative="1" as="geometry">
            <mxPoint x="1155" y="680" as="targetPoint" />
          </mxGeometry>
        </mxCell>
        <mxCell id="WnruKDRqM4DlYAUphrk8-22" value="si&lt;br&gt;nums&amp;lt;numi" style="rhombus;whiteSpace=wrap;html=1;" vertex="1" parent="1">
          <mxGeometry x="965" y="580" width="110" height="80" as="geometry" />
        </mxCell>
        <mxCell id="WnruKDRqM4DlYAUphrk8-34" value="" style="edgeStyle=orthogonalEdgeStyle;rounded=0;orthogonalLoop=1;jettySize=auto;html=1;" edge="1" parent="1" source="WnruKDRqM4DlYAUphrk8-25" target="WnruKDRqM4DlYAUphrk8-33">
          <mxGeometry relative="1" as="geometry" />
        </mxCell>
        <mxCell id="WnruKDRqM4DlYAUphrk8-25" value="El numero secreto es mayor al que ingresaste" style="shape=document;whiteSpace=wrap;html=1;boundedLbl=1;" vertex="1" parent="1">
          <mxGeometry x="805" y="680" width="105" height="80" as="geometry" />
        </mxCell>
        <mxCell id="WnruKDRqM4DlYAUphrk8-36" value="" style="edgeStyle=orthogonalEdgeStyle;rounded=0;orthogonalLoop=1;jettySize=auto;html=1;" edge="1" parent="1" source="WnruKDRqM4DlYAUphrk8-33" target="WnruKDRqM4DlYAUphrk8-35">
          <mxGeometry relative="1" as="geometry" />
        </mxCell>
        <mxCell id="WnruKDRqM4DlYAUphrk8-33" value="&lt;span style=&quot;color: rgb(0, 0, 0); font-family: Helvetica; font-size: 12px; font-style: normal; font-variant-ligatures: normal; font-variant-caps: normal; font-weight: 400; letter-spacing: normal; orphans: 2; text-align: center; text-indent: 0px; text-transform: none; widows: 2; word-spacing: 0px; -webkit-text-stroke-width: 0px; background-color: rgb(248, 249, 250); text-decoration-thickness: initial; text-decoration-style: initial; text-decoration-color: initial; float: none; display: inline !important;&quot;&gt;&quot;te quedan &quot;,vidas,&amp;nbsp; &amp;nbsp;&quot; intentos&quot;&lt;/span&gt;" style="shape=document;whiteSpace=wrap;html=1;boundedLbl=1;" vertex="1" parent="1">
          <mxGeometry x="801.25" y="800" width="112.5" height="80" as="geometry" />
        </mxCell>
        <mxCell id="WnruKDRqM4DlYAUphrk8-43" style="edgeStyle=orthogonalEdgeStyle;rounded=0;orthogonalLoop=1;jettySize=auto;html=1;entryX=0.5;entryY=0;entryDx=0;entryDy=0;" edge="1" parent="1" source="WnruKDRqM4DlYAUphrk8-35" target="WnruKDRqM4DlYAUphrk8-42">
          <mxGeometry relative="1" as="geometry">
            <Array as="points">
              <mxPoint x="858" y="1040" />
              <mxPoint x="1000" y="1040" />
            </Array>
          </mxGeometry>
        </mxCell>
        <mxCell id="WnruKDRqM4DlYAUphrk8-35" value="&lt;span style=&quot;color: rgb(0, 0, 0); font-family: Helvetica; font-size: 12px; font-style: normal; font-variant-ligatures: normal; font-variant-caps: normal; font-weight: 400; letter-spacing: normal; orphans: 2; text-align: center; text-indent: 0px; text-transform: none; widows: 2; word-spacing: 0px; -webkit-text-stroke-width: 0px; text-decoration-thickness: initial; text-decoration-style: initial; text-decoration-color: initial; background-color: rgb(248, 249, 250); float: none; display: inline !important;&quot;&gt;&quot;intentalo de nuevo&quot;&lt;/span&gt;" style="shape=document;whiteSpace=wrap;html=1;boundedLbl=1;" vertex="1" parent="1">
          <mxGeometry x="797.5" y="910" width="120" height="80" as="geometry" />
        </mxCell>
        <mxCell id="WnruKDRqM4DlYAUphrk8-37" value="" style="edgeStyle=orthogonalEdgeStyle;rounded=0;orthogonalLoop=1;jettySize=auto;html=1;" edge="1" parent="1" source="WnruKDRqM4DlYAUphrk8-38" target="WnruKDRqM4DlYAUphrk8-40">
          <mxGeometry relative="1" as="geometry" />
        </mxCell>
        <mxCell id="WnruKDRqM4DlYAUphrk8-38" value="El numero secreto es menor al que ingresaste" style="shape=document;whiteSpace=wrap;html=1;boundedLbl=1;" vertex="1" parent="1">
          <mxGeometry x="1097.5" y="680" width="105" height="80" as="geometry" />
        </mxCell>
        <mxCell id="WnruKDRqM4DlYAUphrk8-39" value="" style="edgeStyle=orthogonalEdgeStyle;rounded=0;orthogonalLoop=1;jettySize=auto;html=1;" edge="1" parent="1" source="WnruKDRqM4DlYAUphrk8-40" target="WnruKDRqM4DlYAUphrk8-41">
          <mxGeometry relative="1" as="geometry" />
        </mxCell>
        <mxCell id="WnruKDRqM4DlYAUphrk8-40" value="&lt;span style=&quot;color: rgb(0, 0, 0); font-family: Helvetica; font-size: 12px; font-style: normal; font-variant-ligatures: normal; font-variant-caps: normal; font-weight: 400; letter-spacing: normal; orphans: 2; text-align: center; text-indent: 0px; text-transform: none; widows: 2; word-spacing: 0px; -webkit-text-stroke-width: 0px; background-color: rgb(248, 249, 250); text-decoration-thickness: initial; text-decoration-style: initial; text-decoration-color: initial; float: none; display: inline !important;&quot;&gt;&quot;te quedan &quot;,vidas,&amp;nbsp; &amp;nbsp;&quot; intentos&quot;&lt;/span&gt;" style="shape=document;whiteSpace=wrap;html=1;boundedLbl=1;" vertex="1" parent="1">
          <mxGeometry x="1093.75" y="800" width="112.5" height="80" as="geometry" />
        </mxCell>
        <mxCell id="WnruKDRqM4DlYAUphrk8-44" style="edgeStyle=orthogonalEdgeStyle;rounded=0;orthogonalLoop=1;jettySize=auto;html=1;entryX=0.5;entryY=0;entryDx=0;entryDy=0;" edge="1" parent="1" source="WnruKDRqM4DlYAUphrk8-41" target="WnruKDRqM4DlYAUphrk8-42">
          <mxGeometry relative="1" as="geometry">
            <Array as="points">
              <mxPoint x="1150" y="1040" />
              <mxPoint x="1000" y="1040" />
            </Array>
          </mxGeometry>
        </mxCell>
        <mxCell id="WnruKDRqM4DlYAUphrk8-41" value="&lt;span style=&quot;color: rgb(0, 0, 0); font-family: Helvetica; font-size: 12px; font-style: normal; font-variant-ligatures: normal; font-variant-caps: normal; font-weight: 400; letter-spacing: normal; orphans: 2; text-align: center; text-indent: 0px; text-transform: none; widows: 2; word-spacing: 0px; -webkit-text-stroke-width: 0px; text-decoration-thickness: initial; text-decoration-style: initial; text-decoration-color: initial; background-color: rgb(248, 249, 250); float: none; display: inline !important;&quot;&gt;&quot;intentalo de nuevo&quot;&lt;/span&gt;" style="shape=document;whiteSpace=wrap;html=1;boundedLbl=1;" vertex="1" parent="1">
          <mxGeometry x="1090" y="910" width="120" height="80" as="geometry" />
        </mxCell>
        <mxCell id="WnruKDRqM4DlYAUphrk8-45" style="edgeStyle=orthogonalEdgeStyle;rounded=0;orthogonalLoop=1;jettySize=auto;html=1;" edge="1" parent="1" source="WnruKDRqM4DlYAUphrk8-42">
          <mxGeometry relative="1" as="geometry">
            <mxPoint x="690" y="240" as="targetPoint" />
            <Array as="points">
              <mxPoint x="1240" y="1110" />
              <mxPoint x="1240" y="240" />
            </Array>
          </mxGeometry>
        </mxCell>
        <mxCell id="WnruKDRqM4DlYAUphrk8-42" value="numi" style="shape=parallelogram;perimeter=parallelogramPerimeter;whiteSpace=wrap;html=1;fixedSize=1;" vertex="1" parent="1">
          <mxGeometry x="940" y="1080" width="120" height="60" as="geometry" />
        </mxCell>
        <mxCell id="WnruKDRqM4DlYAUphrk8-50" value="" style="edgeStyle=orthogonalEdgeStyle;rounded=0;orthogonalLoop=1;jettySize=auto;html=1;" edge="1" parent="1" source="WnruKDRqM4DlYAUphrk8-46" target="WnruKDRqM4DlYAUphrk8-49">
          <mxGeometry relative="1" as="geometry" />
        </mxCell>
        <mxCell id="WnruKDRqM4DlYAUphrk8-46" value="&quot;Quieres jugar otra vez&quot;" style="shape=document;whiteSpace=wrap;html=1;boundedLbl=1;" vertex="1" parent="1">
          <mxGeometry x="505" y="1030" width="120" height="80" as="geometry" />
        </mxCell>
        <mxCell id="WnruKDRqM4DlYAUphrk8-49" value="reps" style="shape=parallelogram;perimeter=parallelogramPerimeter;whiteSpace=wrap;html=1;fixedSize=1;" vertex="1" parent="1">
          <mxGeometry x="505" y="1160" width="120" height="60" as="geometry" />
        </mxCell>
        <mxCell id="WnruKDRqM4DlYAUphrk8-51" style="edgeStyle=orthogonalEdgeStyle;rounded=0;orthogonalLoop=1;jettySize=auto;html=1;entryX=0.5;entryY=0;entryDx=0;entryDy=0;" edge="1" source="WnruKDRqM4DlYAUphrk8-52" target="WnruKDRqM4DlYAUphrk8-56" parent="1">
          <mxGeometry relative="1" as="geometry" />
        </mxCell>
        <mxCell id="WnruKDRqM4DlYAUphrk8-52" value="Felicidades, adivinaste el numero secreto" style="shape=document;whiteSpace=wrap;html=1;boundedLbl=1;" vertex="1" parent="1">
          <mxGeometry x="420" y="810" width="120" height="80" as="geometry" />
        </mxCell>
        <mxCell id="WnruKDRqM4DlYAUphrk8-53" style="edgeStyle=orthogonalEdgeStyle;rounded=0;orthogonalLoop=1;jettySize=auto;html=1;entryX=0.5;entryY=0;entryDx=0;entryDy=0;" edge="1" source="WnruKDRqM4DlYAUphrk8-54" target="WnruKDRqM4DlYAUphrk8-56" parent="1">
          <mxGeometry relative="1" as="geometry" />
        </mxCell>
        <mxCell id="WnruKDRqM4DlYAUphrk8-54" value="No pudiste adivinar el numero y te quedaste sin intentos, has perdido&quot;" style="shape=document;whiteSpace=wrap;html=1;boundedLbl=1;" vertex="1" parent="1">
          <mxGeometry x="590" y="810" width="120" height="80" as="geometry" />
        </mxCell>
        <mxCell id="WnruKDRqM4DlYAUphrk8-55" value="" style="edgeStyle=orthogonalEdgeStyle;rounded=0;orthogonalLoop=1;jettySize=auto;html=1;" edge="1" source="WnruKDRqM4DlYAUphrk8-56" target="WnruKDRqM4DlYAUphrk8-57" parent="1">
          <mxGeometry relative="1" as="geometry" />
        </mxCell>
        <mxCell id="WnruKDRqM4DlYAUphrk8-56" value="&quot;Quieres jugar otra vez&quot;" style="shape=document;whiteSpace=wrap;html=1;boundedLbl=1;" vertex="1" parent="1">
          <mxGeometry x="505" y="1030" width="120" height="80" as="geometry" />
        </mxCell>
        <mxCell id="WnruKDRqM4DlYAUphrk8-59" style="edgeStyle=orthogonalEdgeStyle;rounded=0;orthogonalLoop=1;jettySize=auto;html=1;" edge="1" parent="1" source="WnruKDRqM4DlYAUphrk8-57">
          <mxGeometry relative="1" as="geometry">
            <mxPoint x="460" y="140" as="targetPoint" />
            <Array as="points">
              <mxPoint x="1280" y="1190" />
              <mxPoint x="1280" y="140" />
              <mxPoint x="460" y="140" />
            </Array>
          </mxGeometry>
        </mxCell>
        <mxCell id="WnruKDRqM4DlYAUphrk8-57" value="reps" style="shape=parallelogram;perimeter=parallelogramPerimeter;whiteSpace=wrap;html=1;fixedSize=1;" vertex="1" parent="1">
          <mxGeometry x="505" y="1160" width="120" height="60" as="geometry" />
        </mxCell>
      </root>
    </mxGraphModel>
  </diagram>
</mxfile>
